<?xml version="1.0" encoding="UTF-8" standalone="no"?>
<svg
   xmlns:dc="http://purl.org/dc/elements/1.1/"
   xmlns:cc="http://creativecommons.org/ns#"
   xmlns:rdf="http://www.w3.org/1999/02/22-rdf-syntax-ns#"
   xmlns:svg="http://www.w3.org/2000/svg"
   xmlns="http://www.w3.org/2000/svg"
   xmlns:sodipodi="http://sodipodi.sourceforge.net/DTD/sodipodi-0.dtd"
   xmlns:inkscape="http://www.inkscape.org/namespaces/inkscape"
   version="1.1"
   x="0px"
   y="0px"
   viewBox="0 0 100 100"
   id="svg4408"
   sodipodi:docname="connect.svg"
   inkscape:version="0.92.2 (5c3e80d, 2017-08-06)">
  <metadata
     id="metadata4414">
    <rdf:RDF>
      <cc:Work
         rdf:about="">
        <dc:format>image/svg+xml</dc:format>
        <dc:type
           rdf:resource="http://purl.org/dc/dcmitype/StillImage" />
        <dc:title></dc:title>
      </cc:Work>
    </rdf:RDF>
  </metadata>
  <defs
     id="defs4412" />
  <sodipodi:namedview
     pagecolor="#ffffff"
     bordercolor="#666666"
     borderopacity="1"
     objecttolerance="10"
     gridtolerance="10"
     guidetolerance="10"
     inkscape:pageopacity="0"
     inkscape:pageshadow="2"
     inkscape:window-width="1366"
     inkscape:window-height="706"
     id="namedview4410"
     showgrid="false"
     inkscape:zoom="2.36"
     inkscape:cx="-48.418498"
     inkscape:cy="53.707039"
     inkscape:window-x="-8"
     inkscape:window-y="-8"
     inkscape:window-maximized="1"
     inkscape:current-layer="svg4408" />
  <g
     id="g925"
     transform="matrix(0.6201928,0,0,0.64992313,-236.77436,-209.14309)"
     style="fill:#ffffff">
    <g
       id="g868"
       style="fill:#ffffff">
      <g
         id="g866"
         transform="matrix(0.25157149,0,0,0.27683379,384.98933,313.0252)"
         style="fill:#ffffff">
        <path
           id="path864"
           d="m 306.031,546.268 c -37.445,0 -67.916,-30.471 -67.916,-67.916 0,-37.445 30.471,-67.916 67.916,-67.916 37.445,0 67.916,30.471 67.916,67.916 0,37.435 -30.47,67.916 -67.916,67.916 z m 0,-114.9 c -25.906,0 -46.974,21.078 -46.974,46.974 0,25.906 21.079,46.974 46.974,46.974 25.906,0 46.974,-21.078 46.974,-46.974 0,-25.896 -21.078,-46.974 -46.974,-46.974 z m 94.765,0.963 c -13.026,0 -25.277,-5.067 -34.503,-14.282 -8.146,-8.157 -17.413,-14.419 -27.55,-18.618 -20.324,-8.429 -45.099,-8.429 -65.466,0 -10.167,4.22 -19.435,10.482 -27.57,18.618 -9.205,9.215 -21.456,14.282 -34.482,14.282 -13.026,0 -25.267,-5.067 -34.471,-14.293 -18.995,-19.005 -18.995,-49.947 0.011,-68.963 16.932,-16.933 36.942,-30.252 59.466,-39.603 44.691,-18.502 94.942,-18.502 139.55,0 22.544,9.361 42.565,22.681 59.477,39.603 9.215,9.214 14.293,21.466 14.293,34.492 0,13.016 -5.078,25.267 -14.293,34.481 -9.196,9.215 -21.426,14.283 -34.462,14.283 z m -94.765,-60.199 c 14.314,0 28.021,2.67 40.744,7.947 12.69,5.257 24.251,13.047 34.335,23.162 10.513,10.492 28.837,10.514 39.34,0.011 5.277,-5.267 8.168,-12.262 8.168,-19.686 0,-7.435 -2.891,-14.43 -8.157,-19.687 -14.974,-14.984 -32.691,-26.774 -52.681,-35.067 -39.497,-16.388 -83.938,-16.388 -123.508,0 -19.969,8.293 -37.696,20.094 -52.681,35.067 -10.838,10.849 -10.838,28.514 0,39.361 10.502,10.523 28.827,10.503 39.33,0 10.073,-10.083 21.623,-17.874 34.346,-23.162 12.743,-5.276 26.45,-7.946 40.764,-7.946 z m 176,-21.048 c -13.026,0 -25.267,-5.067 -34.471,-14.293 -18.975,-18.942 -40.796,-33.591 -64.869,-43.55 -48.23,-19.979 -105.173,-19.979 -153.341,0 -24.115,9.979 -45.937,24.639 -64.869,43.561 -9.193,9.215 -21.434,14.282 -34.471,14.282 -13.037,0 -25.288,-5.067 -34.492,-14.282 -18.974,-19.005 -18.984,-49.938 -0.011,-68.953 27.728,-27.717 60.304,-49.445 96.806,-64.565 72.503,-30.052 154.838,-30.073 227.424,0 36.492,15.121 69.058,36.848 96.774,64.555 19.006,19.016 19.006,49.958 0,68.963 -9.223,9.215 -21.464,14.282 -34.48,14.282 z m -176,-93.842 c 29.539,0 58.021,5.603 84.67,16.649 26.629,11.016 50.744,27.194 71.687,48.095 10.492,10.533 28.796,10.523 39.33,0.01 10.837,-10.848 10.837,-28.502 0,-39.351 -25.771,-25.749 -56.042,-45.948 -89.99,-60.01 -67.466,-27.958 -144,-27.938 -211.393,0 -33.958,14.062 -64.241,34.251 -90.01,60.01 -10.827,10.848 -10.827,28.514 0.01,39.351 10.482,10.503 28.848,10.514 39.33,0.011 20.911,-20.9 45.016,-37.079 71.675,-48.115 26.65,-11.048 55.131,-16.65 84.691,-16.65 z m 257.226,12.607 c -13.016,0 -25.268,-5.068 -34.472,-14.283 -29.696,-29.686 -64.073,-52.733 -102.178,-68.513 -38.095,-15.78 -78.66,-23.78 -120.586,-23.78 -41.948,0 -82.534,8.01 -120.618,23.78 -38.147,15.812 -72.513,38.859 -102.157,68.513 -9.204,9.215 -21.456,14.283 -34.481,14.283 -13.026,0 -25.267,-5.068 -34.472,-14.293 C 5.079,246.362 0,234.111 0,221.085 0,208.059 5.079,195.808 14.314,186.593 52.775,148.132 97.885,118.017 148.367,97.095 198.576,76.299 251.613,65.744 306.032,65.744 c 54.419,0 107.466,10.555 157.623,31.351 50.492,20.911 95.623,51.026 134.104,89.508 19.006,19.016 19.006,49.958 0,68.963 -9.236,9.215 -21.476,14.283 -34.502,14.283 z M 306.031,142.32 c 44.691,0 87.948,8.534 128.597,25.382 40.649,16.838 77.31,41.403 108.964,73.058 10.513,10.523 28.816,10.502 39.351,0 10.838,-10.848 10.838,-28.502 0,-39.351 C 546.42,164.885 503.582,136.288 455.634,116.446 408.021,96.697 357.686,86.687 306.031,86.687 c -51.655,0 -101.989,10.01 -149.644,29.759 -47.926,19.853 -90.754,48.45 -127.277,84.963 -5.277,5.267 -8.167,12.251 -8.167,19.675 0,7.424 2.89,14.408 8.157,19.665 10.523,10.544 28.837,10.513 39.34,0.01 31.602,-31.602 68.251,-56.188 108.942,-73.058 40.649,-16.836 83.927,-25.381 128.649,-25.381 z"
           inkscape:connector-curvature="0"
           style="fill:#ffffff" />
      </g>
    </g>
    <g
       id="g870"
       style="fill:#ffffff" />
    <g
       id="g872"
       style="fill:#ffffff" />
    <g
       id="g874"
       style="fill:#ffffff" />
    <g
       id="g876"
       style="fill:#ffffff" />
    <g
       id="g878"
       style="fill:#ffffff" />
    <g
       id="g880"
       style="fill:#ffffff" />
    <g
       id="g882"
       style="fill:#ffffff" />
    <g
       id="g884"
       style="fill:#ffffff" />
    <g
       id="g886"
       style="fill:#ffffff" />
    <g
       id="g888"
       style="fill:#ffffff" />
    <g
       id="g890"
       style="fill:#ffffff" />
    <g
       id="g892"
       style="fill:#ffffff" />
    <g
       id="g894"
       style="fill:#ffffff" />
    <g
       id="g896"
       style="fill:#ffffff" />
    <g
       id="g898"
       style="fill:#ffffff" />
  </g>
</svg>
