<?xml version="1.0" encoding="UTF-8" standalone="no"?>
<!-- Generator: Adobe Illustrator 19.0.0, SVG Export Plug-In . SVG Version: 6.00 Build 0)  -->

<svg
   xmlns:dc="http://purl.org/dc/elements/1.1/"
   xmlns:cc="http://creativecommons.org/ns#"
   xmlns:rdf="http://www.w3.org/1999/02/22-rdf-syntax-ns#"
   xmlns:svg="http://www.w3.org/2000/svg"
   xmlns="http://www.w3.org/2000/svg"
   xmlns:sodipodi="http://sodipodi.sourceforge.net/DTD/sodipodi-0.dtd"
   xmlns:inkscape="http://www.inkscape.org/namespaces/inkscape"
   version="1.1"
   id="Capa_1"
   x="0px"
   y="0px"
   viewBox="0 0 416.4 416.4"
   style="enable-background:new 0 0 416.4 416.4;"
   xml:space="preserve"
   sodipodi:docname="masjid.svg"
   inkscape:version="0.92.2 (5c3e80d, 2017-08-06)"><metadata
     id="metadata43"><rdf:RDF><cc:Work
         rdf:about=""><dc:format>image/svg+xml</dc:format><dc:type
           rdf:resource="http://purl.org/dc/dcmitype/StillImage" /><dc:title></dc:title></cc:Work></rdf:RDF></metadata><defs
     id="defs41" /><sodipodi:namedview
     pagecolor="#ffffff"
     bordercolor="#666666"
     borderopacity="1"
     objecttolerance="10"
     gridtolerance="10"
     guidetolerance="10"
     inkscape:pageopacity="0"
     inkscape:pageshadow="2"
     inkscape:window-width="1366"
     inkscape:window-height="706"
     id="namedview39"
     showgrid="false"
     inkscape:zoom="0.56676274"
     inkscape:cx="208.2"
     inkscape:cy="208.2"
     inkscape:window-x="-8"
     inkscape:window-y="-8"
     inkscape:window-maximized="1"
     inkscape:current-layer="Capa_1" /><g
     id="g6"
     style="fill:#ffffff"><g
       id="g4"
       style="fill:#ffffff"><path
         d="M416,101.4c0-0.4,0.4-0.8,0.4-1.2c0-25.6-19.2-46.8-43.6-50.4v-32c0-4-3.2-7.2-7.2-7.2s-7.2,3.2-7.2,7.2v32    c-24.8,3.6-43.6,24.8-43.6,50.4c0,0.4,0,0.8,0.4,1.2v82.4c-19.2-36-56.4-61.2-99.6-63.6v-32c0-4-3.2-7.2-7.2-7.2s-7.2,3.2-7.2,7.2    v31.6c-43.2,2.4-80.4,28-100,64.4v-24c0-0.4,0.4-0.8,0.4-1.2c0-0.4,0-0.8-0.4-1.2v-56c0-0.4,0.4-0.8,0.4-1.2    c0-25.6-19.2-46.8-43.6-50.4v-32c0-4-3.2-7.2-7.2-7.2s-7.2,3.2-7.2,7.2v32C18.8,53.8,0,75,0,100.6c0,0.4,0,0.8,0.4,1.2v296.8H0    c0,4,3.2,7.2,7.2,7.2H94h228h86.8c4,0,7.2-3.2,7.2-7.2V159.8c0-0.4,0.4-0.8,0.4-1.2c0-0.4,0-0.8-0.4-1.2V101.4z M50.4,63.4    C68,63.4,82.8,75.8,86,92.6H14.8C18.4,76.2,32.8,63.4,50.4,63.4z M86.8,391.4H14.4V165.8h72.4V391.4z M86.8,151.4H14.4V107h72.4    V151.4z M208,133.8c56.4,0,102.8,44,106.4,99.6H101.6C105.6,177.8,151.6,133.8,208,133.8z M238.4,391.4h-60.8v-59.2    c0-16.8,13.6-30.4,30.4-30.4s30.4,13.6,30.4,30.4V391.4z M315.2,391.4h-0.4h-62v-59.2c0-24.8-20-44.8-44.8-44.8    s-44.8,20-44.8,44.8v59.2h-62V247.8h214V391.4z M365.6,63.4c17.6,0,32.4,12.4,35.6,29.2h-71.6C333.2,76.2,347.6,63.4,365.6,63.4z     M401.6,391.4h-72.4V165.8h72.4V391.4z M401.6,151.4h-72.4V107h72.4V151.4z"
         id="path2"
         style="fill:#ffffff" /></g></g><g
     id="g8" /><g
     id="g10" /><g
     id="g12" /><g
     id="g14" /><g
     id="g16" /><g
     id="g18" /><g
     id="g20" /><g
     id="g22" /><g
     id="g24" /><g
     id="g26" /><g
     id="g28" /><g
     id="g30" /><g
     id="g32" /><g
     id="g34" /><g
     id="g36" /></svg>