<?xml version="1.0" encoding="UTF-8" standalone="no"?>
<svg
   xmlns:dc="http://purl.org/dc/elements/1.1/"
   xmlns:cc="http://creativecommons.org/ns#"
   xmlns:rdf="http://www.w3.org/1999/02/22-rdf-syntax-ns#"
   xmlns:svg="http://www.w3.org/2000/svg"
   xmlns="http://www.w3.org/2000/svg"
   xmlns:sodipodi="http://sodipodi.sourceforge.net/DTD/sodipodi-0.dtd"
   xmlns:inkscape="http://www.inkscape.org/namespaces/inkscape"
   version="1.1"
   x="0px"
   y="0px"
   viewBox="0 0 512 512"
   enable-background="new 0 0 512 512"
   xml:space="preserve"
   id="svg14"
   sodipodi:docname="masjid.svg"
   inkscape:version="0.92.2 (5c3e80d, 2017-08-06)"><metadata
     id="metadata20"><rdf:RDF><cc:Work
         rdf:about=""><dc:format>image/svg+xml</dc:format><dc:type
           rdf:resource="http://purl.org/dc/dcmitype/StillImage" /><dc:title></dc:title></cc:Work></rdf:RDF></metadata><defs
     id="defs18" /><sodipodi:namedview
     pagecolor="#ffffff"
     bordercolor="#666666"
     borderopacity="1"
     objecttolerance="10"
     gridtolerance="10"
     guidetolerance="10"
     inkscape:pageopacity="0"
     inkscape:pageshadow="2"
     inkscape:window-width="1366"
     inkscape:window-height="706"
     id="namedview16"
     showgrid="false"
     inkscape:zoom="0.4609375"
     inkscape:cx="256"
     inkscape:cy="256"
     inkscape:window-x="-8"
     inkscape:window-y="-8"
     inkscape:window-maximized="1"
     inkscape:current-layer="svg14" /><g
     id="g1212"
     transform="matrix(1.1875641,0,0,1.2525218,8.7491524,-4.7750338)"
     style="fill:#ffffff"><g
       id="g1155"
       style="fill:#ffffff"><g
         id="g1153"
         style="fill:#ffffff"><path
           id="path1151"
           d="m 416,101.4 c 0,-0.4 0.4,-0.8 0.4,-1.2 0,-25.6 -19.2,-46.8 -43.6,-50.4 v -32 c 0,-4 -3.2,-7.2 -7.2,-7.2 -4,0 -7.2,3.2 -7.2,7.2 v 32 c -24.8,3.6 -43.6,24.8 -43.6,50.4 0,0.4 0,0.8 0.4,1.2 v 82.4 c -19.2,-36 -56.4,-61.2 -99.6,-63.6 v -32 c 0,-4 -3.2,-7.2 -7.2,-7.2 -4,0 -7.2,3.2 -7.2,7.2 v 31.6 c -43.2,2.4 -80.4,28 -100,64.4 v -24 c 0,-0.4 0.4,-0.8 0.4,-1.2 0,-0.4 0,-0.8 -0.4,-1.2 v -56 c 0,-0.4 0.4,-0.8 0.4,-1.2 C 101.6,75 82.4,53.8 58,50.2 v -32 c 0,-4 -3.2,-7.2 -7.2,-7.2 -4,0 -7.2,3.2 -7.2,7.2 v 32 C 18.8,53.8 0,75 0,100.6 c 0,0.4 0,0.8 0.4,1.2 V 398.6 H 0 c 0,4 3.2,7.2 7.2,7.2 H 94 322 408.8 c 4,0 7.2,-3.2 7.2,-7.2 V 159.8 c 0,-0.4 0.4,-0.8 0.4,-1.2 0,-0.4 0,-0.8 -0.4,-1.2 z M 50.4,63.4 C 68,63.4 82.8,75.8 86,92.6 H 14.8 c 3.6,-16.4 18,-29.2 35.6,-29.2 z m 36.4,328 H 14.4 V 165.8 h 72.4 z m 0,-240 H 14.4 V 107 H 86.8 Z M 208,133.8 c 56.4,0 102.8,44 106.4,99.6 H 101.6 c 4,-55.6 50,-99.6 106.4,-99.6 z m 30.4,257.6 h -60.8 v -59.2 c 0,-16.8 13.6,-30.4 30.4,-30.4 16.8,0 30.4,13.6 30.4,30.4 z m 76.8,0 h -0.4 -62 v -59.2 c 0,-24.8 -20,-44.8 -44.8,-44.8 -24.8,0 -44.8,20 -44.8,44.8 v 59.2 h -62 V 247.8 h 214 z m 50.4,-328 c 17.6,0 32.4,12.4 35.6,29.2 h -71.6 c 3.6,-16.4 18,-29.2 36,-29.2 z m 36,328 H 329.2 V 165.8 h 72.4 z m 0,-240 H 329.2 V 107 h 72.4 z"
           inkscape:connector-curvature="0"
           style="fill:#ffffff" /></g></g><g
       id="g1157"
       style="fill:#ffffff" /><g
       id="g1159"
       style="fill:#ffffff" /><g
       id="g1161"
       style="fill:#ffffff" /><g
       id="g1163"
       style="fill:#ffffff" /><g
       id="g1165"
       style="fill:#ffffff" /><g
       id="g1167"
       style="fill:#ffffff" /><g
       id="g1169"
       style="fill:#ffffff" /><g
       id="g1171"
       style="fill:#ffffff" /><g
       id="g1173"
       style="fill:#ffffff" /><g
       id="g1175"
       style="fill:#ffffff" /><g
       id="g1177"
       style="fill:#ffffff" /><g
       id="g1179"
       style="fill:#ffffff" /><g
       id="g1181"
       style="fill:#ffffff" /><g
       id="g1183"
       style="fill:#ffffff" /><g
       id="g1185"
       style="fill:#ffffff" /></g></svg>